<?xml version="1.0" standalone="no"?>
<!DOCTYPE svg PUBLIC "-//W3C//DTD SVG 20010904//EN"
 "http://www.w3.org/TR/2001/REC-SVG-20010904/DTD/svg10.dtd">
<svg version="1.0" xmlns="http://www.w3.org/2000/svg"
 width="512.000000pt" height="512.000000pt" viewBox="0 0 512.000000 512.000000"
 preserveAspectRatio="xMidYMid meet">

<g transform="translate(0.000000,512.000000) scale(0.100000,-0.100000)"
fill="#43c120" stroke="none">
<path d="M2170 5109 c-403 -24 -871 -98 -1189 -190 -502 -144 -816 -379 -919
-686 -24 -73 -26 -93 -30 -298 -3 -204 -2 -224 17 -276 12 -31 36 -73 54 -94
l33 -38 -17 -118 c-27 -181 -42 -355 -35 -403 13 -83 96 -184 240 -291 84 -62
119 -75 200 -75 89 1 161 38 269 139 35 33 39 34 48 18 40 -69 109 -97 276
-108 129 -8 366 1 405 16 13 5 20 0 29 -21 13 -36 45 -71 84 -92 26 -15 81
-17 447 -20 364 -3 421 -1 448 13 27 14 33 14 60 0 27 -14 84 -16 448 -13 366
3 421 5 447 20 39 21 71 56 84 92 9 21 16 26 29 21 39 -15 276 -24 405 -16
167 11 236 39 276 108 9 16 13 15 48 -18 108 -101 180 -138 269 -139 82 0 116
13 202 77 143 106 226 209 238 294 6 48 -7 208 -32 394 l-17 121 35 46 c64 83
70 119 66 366 -4 208 -5 220 -33 301 -122 355 -515 602 -1185 745 -523 112
-1138 157 -1700 125z m746 -149 c352 -21 720 -73 1024 -146 503 -120 809 -295
933 -532 55 -104 67 -168 66 -338 l-1 -149 -17 65 c-22 84 -41 120 -87 160
-67 58 -116 74 -229 75 -87 0 -107 -3 -155 -26 -117 -55 -147 -102 -184 -283
-13 -65 -26 -119 -28 -121 -2 -3 -15 54 -28 125 -27 151 -56 213 -123 259 -69
47 -135 64 -230 59 -101 -6 -168 -33 -225 -91 -52 -53 -65 -86 -91 -222 -12
-60 -23 -110 -25 -112 -2 -2 -9 17 -15 43 -30 116 -123 272 -204 338 -98 80
-235 118 -354 98 -96 -16 -201 -70 -259 -135 -47 -52 -114 -175 -114 -209 0
-10 -4 -18 -10 -18 -5 0 -10 8 -10 18 0 33 -67 157 -113 208 -62 68 -161 120
-260 136 -90 14 -135 4 -156 -33 -14 -25 -11 -59 8 -88 6 -10 37 -18 84 -22
214 -20 292 -129 336 -469 18 -137 32 -453 29 -640 l-3 -185 -388 -3 c-362 -2
-388 -1 -395 15 -13 32 -8 611 6 703 20 129 56 257 102 359 37 83 40 93 28
118 -15 32 -54 49 -92 39 -21 -5 -34 -22 -60 -76 -19 -38 -42 -99 -51 -135
-10 -36 -19 -64 -21 -62 -2 2 -13 52 -25 112 -26 136 -39 169 -91 222 -57 58
-124 85 -225 91 -95 5 -161 -12 -230 -59 -66 -46 -93 -103 -123 -258 l-26
-135 -23 114 c-30 145 -53 200 -103 246 -57 51 -118 75 -207 81 -91 7 -162
-11 -233 -56 -61 -39 -97 -94 -118 -184 -25 -104 -33 -58 -21 133 7 120 14
169 31 215 121 323 511 534 1225 664 480 88 991 119 1481 91z m218 -971 c165
-61 248 -262 287 -694 15 -170 18 -550 3 -565 -7 -7 -133 -9 -395 -8 l-384 3
1 290 c1 488 38 759 120 876 30 43 86 85 141 105 58 20 163 17 227 -7z m-1801
-43 c52 -22 75 -55 91 -131 44 -212 106 -704 106 -846 0 -116 -3 -119 -162
-130 -75 -6 -173 -6 -246 0 -158 11 -162 15 -162 123 0 210 93 874 132 939 31
51 167 77 241 45z m2636 -2 c22 -9 47 -27 56 -40 40 -62 135 -721 135 -942 0
-108 -4 -112 -162 -123 -75 -6 -173 -6 -246 0 -158 11 -162 14 -162 126 0 140
46 526 94 786 26 141 40 168 101 195 41 18 136 17 184 -2z m-3352 -13 c23 -11
48 -30 57 -43 29 -45 103 -467 127 -720 9 -102 9 -134 -1 -158 -17 -41 -170
-184 -226 -210 -31 -15 -53 -20 -74 -15 -41 9 -135 81 -210 162 l-63 67 7 123
c4 68 15 181 26 251 23 160 87 457 105 493 33 63 165 89 252 50z m4083 -1 c22
-11 46 -30 54 -43 31 -47 117 -553 132 -775 l7 -103 -95 -93 c-104 -102 -170
-142 -217 -131 -40 9 -143 88 -213 164 -67 72 -65 60 -43 263 24 225 95 619
121 669 32 64 173 91 254 49z"/>
<path d="M196 2185 c-49 -17 -94 -59 -117 -111 -26 -57 -34 -226 -20 -405 l12
-145 -28 -60 -28 -59 0 -275 c0 -263 1 -278 23 -340 93 -259 351 -444 812
-583 293 -89 684 -152 1170 -189 217 -16 823 -16 1015 0 350 30 667 74 703 98
33 21 28 89 -8 115 -24 18 -29 18 -190 -5 -392 -57 -754 -81 -1130 -72 -1063
23 -1864 215 -2128 511 -54 61 -96 138 -111 206 -6 24 -11 118 -11 209 l0 164
38 -36 c104 -103 274 -108 399 -12 l32 25 7 -28 c31 -144 65 -197 151 -239 51
-26 69 -29 148 -29 170 1 261 72 296 230 l13 60 12 -70 c31 -168 44 -212 81
-254 52 -62 121 -93 216 -99 110 -7 160 10 224 74 45 44 55 63 79 140 l28 89
17 -105 c24 -155 37 -189 89 -241 57 -57 118 -79 216 -79 91 0 167 27 218 76
51 49 63 78 84 196 l19 103 7 -50 c25 -165 53 -227 127 -277 54 -36 98 -48
180 -48 95 0 164 25 220 80 54 51 69 93 90 238 7 51 16 92 20 92 4 0 10 -21
14 -47 22 -151 111 -232 268 -241 89 -5 147 8 211 49 66 41 94 97 121 241 12
68 25 116 28 108 3 -8 11 -39 17 -68 17 -73 63 -130 135 -167 52 -27 68 -30
149 -30 81 0 98 4 151 30 78 40 117 91 140 187 10 40 19 75 21 77 2 2 18 -9
36 -24 55 -47 106 -65 184 -65 123 0 223 66 284 187 l24 48 9 -40 c13 -59 -1
-396 -20 -458 -61 -210 -336 -389 -793 -517 -63 -17 -122 -38 -129 -46 -21
-19 -19 -79 4 -104 25 -28 54 -25 193 15 343 98 581 222 731 380 80 85 133
181 151 274 5 29 10 151 10 271 0 268 -11 315 -95 410 -22 24 -22 29 -15 165
10 171 0 328 -23 372 -23 43 -84 91 -132 105 -27 7 -108 8 -250 4 -171 -6
-217 -10 -251 -25 -23 -10 -44 -23 -48 -29 -4 -7 -28 -1 -69 19 -71 33 -145
38 -204 14 -42 -18 -130 -81 -185 -133 l-36 -34 -49 18 c-42 17 -77 19 -278
19 -215 0 -233 -1 -269 -21 l-40 -21 -45 21 c-43 19 -63 21 -276 21 -213 0
-233 -2 -276 -21 l-45 -21 -40 21 c-37 20 -54 21 -274 21 -216 0 -238 -2 -276
-20 l-40 -21 -45 21 c-39 18 -68 20 -255 23 -192 3 -216 2 -272 -17 l-62 -21
-64 52 c-35 29 -90 69 -122 88 -52 31 -66 35 -129 35 -55 0 -81 -5 -121 -25
l-51 -26 -38 25 c-32 22 -53 26 -154 32 -190 12 -342 10 -385 -6z m384 -144
c37 -6 41 -8 23 -14 -43 -15 -56 -80 -50 -240 3 -78 13 -191 22 -250 l16 -108
-25 -43 c-47 -80 -123 -124 -191 -112 -115 22 -166 187 -169 544 -1 247 -13
232 188 231 77 0 161 -4 186 -8z m4248 -9 c26 -26 35 -161 22 -341 -21 -296
-66 -403 -177 -418 -68 -9 -136 36 -185 124 l-24 42 18 128 c11 71 20 184 21
253 2 134 -8 171 -54 204 -21 14 -20 15 17 19 22 2 108 4 192 5 136 2 154 0
170 -16z m-3772 -51 c43 -32 90 -71 103 -85 l25 -27 -12 -127 c-12 -131 -58
-421 -87 -549 -14 -60 -22 -76 -48 -95 -63 -45 -199 -31 -228 24 -27 50 -97
470 -106 636 l-6 113 34 36 c19 19 65 57 103 84 96 68 119 67 222 -10z m3168
10 c40 -27 87 -66 105 -87 l33 -38 -6 -85 c-14 -168 -82 -579 -107 -643 -15
-37 -50 -58 -109 -65 -70 -8 -137 18 -155 61 -27 66 -86 408 -105 611 l-11
120 58 55 c82 77 149 120 190 120 24 0 55 -14 107 -49z m-1167 -102 c12 -5 25
-20 29 -35 13 -51 -47 -647 -90 -894 -17 -96 -36 -121 -107 -140 -94 -26 -170
16 -189 103 -29 134 -81 586 -95 822 -9 148 -9 148 127 155 126 6 295 0 325
-11z m633 -2 c23 -11 25 -18 28 -87 5 -136 -79 -759 -109 -808 -46 -73 -220
-75 -259 -3 -26 50 -97 546 -107 751 -5 113 -4 127 12 140 32 27 381 32 435 7z
m-1905 1 c14 -6 28 -21 31 -33 16 -64 -76 -767 -111 -852 -32 -77 -182 -95
-244 -29 -27 28 -48 121 -80 346 -31 221 -42 335 -44 450 -2 102 -1 104 23
117 33 17 388 18 425 1z m635 -1 c22 -11 25 -20 28 -77 4 -78 -21 -356 -53
-605 -38 -290 -43 -315 -79 -351 -37 -37 -98 -50 -158 -34 -65 18 -83 44 -102
146 -40 224 -88 694 -84 824 3 79 5 85 28 97 35 18 385 18 420 0z"/>
</g>
</svg>
