<?xml version="1.0" standalone="no"?>
<!DOCTYPE svg PUBLIC "-//W3C//DTD SVG 20010904//EN"
 "http://www.w3.org/TR/2001/REC-SVG-20010904/DTD/svg10.dtd">
<svg version="1.0" xmlns="http://www.w3.org/2000/svg"
 width="512.000000pt" height="512.000000pt" viewBox="0 0 512.000000 512.000000"
 preserveAspectRatio="xMidYMid meet">

<g transform="translate(0.000000,512.000000) scale(0.100000,-0.100000)"
fill="#43c120" stroke="none">
<path d="M980 5093 c-494 -53 -813 -362 -934 -903 -76 -344 -56 -693 69 -1190
51 -206 64 -239 93 -254 35 -18 191 -66 361 -110 73 -19 135 -37 136 -38 1 -2
7 -65 14 -140 31 -366 169 -893 353 -1347 240 -595 539 -990 811 -1073 172
-52 299 16 388 207 36 77 55 137 154 490 87 312 179 469 316 542 50 26 62 28
169 28 103 0 121 -3 171 -26 144 -68 232 -219 329 -565 125 -443 153 -514 233
-601 216 -235 597 -7 896 538 46 84 51 119 21 149 -25 25 -81 27 -102 3 -8
-10 -46 -72 -86 -139 -171 -291 -362 -474 -509 -490 -122 -13 -169 74 -293
531 -115 424 -224 610 -412 704 -83 42 -154 54 -278 49 -125 -6 -191 -28 -279
-93 -152 -112 -238 -282 -349 -690 -98 -355 -140 -453 -213 -491 -114 -59
-337 102 -515 372 -92 139 -217 378 -298 572 -165 393 -310 917 -351 1272 -19
159 -19 174 0 166 8 -3 37 -8 64 -12 44 -6 52 -4 75 19 32 32 33 71 3 101 -17
17 -51 28 -137 45 -139 27 -396 92 -501 127 l-76 25 -22 82 c-137 527 -162
860 -89 1196 87 408 313 681 633 765 109 29 283 41 398 29 182 -21 309 -71
553 -221 222 -136 299 -166 429 -166 137 1 204 27 466 186 239 145 373 193
569 205 310 17 582 -87 747 -286 246 -298 330 -778 232 -1316 -23 -125 -98
-443 -109 -464 -14 -26 -369 -123 -635 -175 -607 -117 -1342 -147 -1970 -80
-270 29 -267 28 -294 7 -33 -27 -33 -79 1 -108 26 -22 144 -39 463 -67 188
-16 869 -16 1060 0 441 37 771 91 1120 181 206 54 347 100 367 119 19 20 84
261 128 477 33 163 60 367 60 458 l0 57 43 -21 c209 -106 369 -318 450 -599
58 -199 80 -465 58 -685 -34 -336 -169 -845 -332 -1251 -38 -95 -69 -180 -69
-189 0 -26 46 -65 78 -65 42 0 64 30 120 170 220 549 362 1147 362 1526 0 359
-89 684 -252 921 -92 134 -268 279 -398 329 -25 9 -49 20 -53 24 -4 4 -14 56
-22 116 -57 433 -242 760 -529 933 -229 138 -587 179 -875 100 -142 -40 -224
-80 -488 -242 -204 -126 -313 -141 -472 -67 -35 17 -127 69 -205 117 -227 139
-354 191 -536 218 -88 14 -225 17 -310 8z"/>
<path d="M1766 2308 c-23 -32 -20 -73 7 -101 30 -34 494 -416 527 -435 38 -22
77 -9 96 32 14 29 15 37 3 60 -8 15 -133 126 -279 246 -239 198 -269 220 -302
220 -27 0 -41 -6 -52 -22z"/>
<path d="M2411 2294 c-24 -30 -26 -46 -10 -75 5 -11 131 -121 280 -244 183
-153 277 -225 293 -225 38 0 76 37 76 74 0 40 -9 50 -313 300 -206 169 -242
196 -272 196 -24 0 -39 -7 -54 -26z"/>
</g>
</svg>
